<svg version="1.0" id="レイヤー_1" xmlns="http://www.w3.org/2000/svg" x="0" y="0" viewBox="0 0 100 32" style="enable-background:new 0 0 100 32" xml:space="preserve"><style>.st0{fill:#312f2f}.st1{fill:#fff}</style><switch><g><path d="M24.3 13.5c1 0 1.9.9 1.9 2 0 .5-.2 1-.6 1.4-1.9 2-4.2 3-7.1 3-4.6 0-9.5-2.6-9.5-9.9.1-5.9 4.2-10 10-10 3 0 6.7 1.8 6.7 4 0 1.1-.9 2-1.9 2-.6 0-1.1-.3-1.5-.7-.8-.9-1.7-1.5-3.3-1.5-3.5 0-4.8 3.3-4.8 6.4 0 3.7 1.8 6 4.8 6 1.6 0 2.8-.9 4-2 .4-.5.9-.7 1.3-.7M41 15c.3.8 1.2 3 1.2 3 .4 1 1.3 1.6 2.3 1.6 1.2 0 2.5-.9 2.5-2.4 0-.3-.1-.7-.2-1.1L41 1.8C40.6.8 39.6.1 38.4.1c-1.2 0-2.2.7-2.6 1.7l-6.1 15-.2.9c0 1.1.9 1.9 2 1.9.8 0 1.6-.5 1.9-1.3 0 0 .9-2.2 1.3-3.3l1.5-3.7c.4-1.2 1.1-3 1.8-4.7.6 1.5 1.3 3.4 1.8 4.7L41 15zM53.9.2c-1.2 0-2.4.8-2.4 2.5v14.6c0 1.6 1.2 2.5 2.5 2.5 1.2 0 2.4-.9 2.4-2.5V2.7C56.4 1 55.2.2 53.9.2m22.5 0c-1.2 0-2 .9-2 2v5.1s0 2.6.1 4.8c-1.2-2.1-3.2-5.3-6.6-10.5-.6-1-1.5-1.5-2.8-1.5-1.6 0-2.8 1.2-2.8 2.6v14.8c0 1.4 1 2.1 2 2.1s2-.7 2-2.1v-5.8s-.1-3.7-.1-4.2c1.7 3.1 4.4 7.4 6.6 10.7.6.9 1.5 1.3 2.8 1.3 1.6 0 2.9-1.3 2.9-3V2.3c-.1-1.2-1-2.1-2.1-2.1M97 15.7h-8.2c1.3-1.6 8.8-10.6 8.8-10.6.5-.7.8-1.4.8-2.2 0-1.5-1.1-2.7-2.7-2.7h-10c-1.3 0-2 1-2 1.9 0 .9.7 1.9 1.9 1.9h6.6c-2.1 2.6-8.6 10.6-8.6 10.6-.5.7-.8 1.5-.8 2.2 0 1.5 1.1 2.6 2.6 2.6h11.5c1.1 0 1.9-.8 1.9-1.9 0-.9-.8-1.8-1.8-1.8M.9 30 0 31.2c46.9-3.8 84.1-.6 98.4.6l1.6-4.2c-28.1-2-61.6-2-99.1 2.4" style="fill:#00684d"/></g></switch></svg>